<svg xmlns="http://www.w3.org/2000/svg" version="1.1" xmlns:xlink="http://www.w3.org/1999/xlink" width="1000" height="1000"><g clip-path="url(#SvgjsClipPath1128)"><rect width="1000" height="1000" fill="#ffffff"></rect><g transform="matrix(14,0,0,14,150,220)"><svg xmlns="http://www.w3.org/2000/svg" version="1.1" xmlns:xlink="http://www.w3.org/1999/xlink" width="50" height="40"><svg data-logo="logo" xmlns="http://www.w3.org/2000/svg" viewBox="0 0 50 40">
        <g id="logogram" transform="translate(0, 0) rotate(0) "><path d="M43 31L31 40H5L7 35L12 31H29L32 35L40 11L45 7H50L43 31ZM43 5L38 9H21L18 5L10 29L5 33H0L7 9L19 0H45L43 5ZM24 13H35L29 31L26 27H15L21 9L24 13Z" fill="#297AFF"></path></g>
        <g id="logotype" transform="translate(50, 20)"></g>
        
      </svg></svg></g></g><defs><clipPath id="SvgjsClipPath1128"><rect width="1000" height="1000" x="0" y="0" rx="300" ry="300"></rect></clipPath></defs></svg>