
      <svg data-logo="logo" xmlns="http://www.w3.org/2000/svg" viewBox="0 0 226 42">
        <g id="logogram" transform="translate(0, 1) rotate(0) "><path d="M43 31L31 40H5L7 35L12 31H29L32 35L40 11L45 7H50L43 31ZM43 5L38 9H21L18 5L10 29L5 33H0L7 9L19 0H45L43 5ZM24 13H35L29 31L26 27H15L21 9L24 13Z" fill="#297AFF"/></g>
        <g id="logotype" transform="translate(56, 8)"><path fill="#000000" d="M15.07 4.86L7.28 4.86L7.28 0.54L28.08 0.54L28.08 4.86L20.30 4.86L20.30 26L15.07 26L15.07 4.86ZM34.40 26L29.27 26L29.27 6.89L34.23 6.89L34.23 10.23L34.44 10.23Q34.97 8.45 36.20 7.54Q37.44 6.64 39.05 6.64L39.05 6.64Q39.44 6.64 39.90 6.68Q40.35 6.72 40.71 6.81L40.71 6.81L40.71 11.39Q40.37 11.27 39.72 11.20Q39.07 11.13 38.49 11.13L38.49 11.13Q37.32 11.13 36.38 11.64Q35.44 12.14 34.92 13.04Q34.40 13.93 34.40 15.13L34.40 15.13L34.40 26ZM46.58 26.38L46.58 26.38Q44.77 26.38 43.33 25.74Q41.88 25.09 41.06 23.82Q40.23 22.55 40.23 20.65L40.23 20.65Q40.23 19.06 40.82 17.98Q41.41 16.91 42.42 16.26Q43.44 15.61 44.73 15.27Q46.02 14.93 47.44 14.79L47.44 14.79Q49.10 14.62 50.11 14.47Q51.13 14.33 51.60 14.01Q52.07 13.70 52.07 13.08L52.07 13.08L52.07 12.99Q52.07 12.17 51.73 11.61Q51.39 11.05 50.72 10.75Q50.05 10.45 49.08 10.45L49.08 10.45Q48.09 10.45 47.35 10.75Q46.62 11.05 46.16 11.54Q45.70 12.04 45.47 12.65L45.47 12.65L40.77 11.87Q41.27 10.21 42.41 9.05Q43.56 7.88 45.26 7.27Q46.96 6.65 49.08 6.65L49.08 6.65Q50.63 6.65 52.09 7.02Q53.54 7.39 54.69 8.16Q55.85 8.93 56.52 10.16Q57.20 11.39 57.20 13.13L57.20 13.13L57.20 26L52.34 26L52.34 23.35L52.17 23.35Q51.71 24.24 50.94 24.91Q50.17 25.59 49.09 25.98Q48.00 26.38 46.58 26.38ZM48.04 22.77L48.04 22.77Q49.25 22.77 50.16 22.29Q51.08 21.81 51.59 20.99Q52.10 20.17 52.10 19.16L52.10 19.16L52.10 17.10Q51.88 17.27 51.42 17.40Q50.96 17.54 50.40 17.64Q49.83 17.75 49.28 17.83Q48.74 17.92 48.31 17.97L48.31 17.97Q47.37 18.10 46.65 18.41Q45.93 18.72 45.54 19.22Q45.15 19.73 45.15 20.51L45.15 20.51Q45.15 21.25 45.52 21.75Q45.90 22.26 46.54 22.51Q47.18 22.77 48.04 22.77ZM67.84 26.38L67.84 26.38Q64.95 26.38 62.86 25.14Q60.77 23.90 59.63 21.68Q58.49 19.47 58.49 16.53L58.49 16.53Q58.49 13.56 59.63 11.35Q60.77 9.13 62.86 7.89Q64.95 6.65 67.84 6.65L67.84 6.65Q69.53 6.65 70.97 7.10Q72.40 7.54 73.52 8.36Q74.63 9.18 75.34 10.36Q76.06 11.54 76.34 13.01L76.34 13.01L71.57 13.90Q71.41 13.15 71.09 12.56Q70.76 11.97 70.30 11.55Q69.84 11.13 69.23 10.91Q68.63 10.69 67.89 10.69L67.89 10.69Q66.53 10.69 65.59 11.42Q64.66 12.16 64.19 13.47Q63.72 14.79 63.72 16.52L63.72 16.52Q63.72 18.22 64.19 19.53Q64.66 20.84 65.59 21.59Q66.53 22.34 67.89 22.34L67.89 22.34Q68.63 22.34 69.24 22.11Q69.86 21.88 70.34 21.45Q70.82 21.01 71.14 20.39Q71.47 19.78 71.60 19.01L71.60 19.01L76.37 19.88Q76.10 21.40 75.38 22.59Q74.66 23.78 73.55 24.63Q72.44 25.49 71.00 25.93Q69.55 26.38 67.84 26.38ZM85.75 16.48L82.26 20.41L82.26 14.24L83.03 14.24L89.29 6.89L95.22 6.89L86.96 16.48L85.75 16.48ZM82.74 26L77.62 26L77.62 0.54L82.74 0.54L82.74 26ZM95.58 26L89.54 26L83.80 17.63L87.24 13.99L95.58 26ZM103.15 26.34L103.15 26.34Q99.18 26.34 96.90 24.27Q94.62 22.19 94.62 18.34L94.62 18.34L94.62 16.86L99.83 16.86L99.83 18.43Q99.83 20.26 100.73 21.20Q101.62 22.14 103.15 22.14L103.15 22.14Q104.67 22.14 105.56 21.20Q106.44 20.26 106.44 18.41L106.44 18.41L106.44 0.54L111.60 0.54L111.60 18.33Q111.60 22.19 109.35 24.27Q107.09 26.34 103.15 26.34ZM122.37 26.38L122.37 26.38Q119.50 26.38 117.40 25.14Q115.29 23.90 114.16 21.68Q113.02 19.47 113.02 16.53L113.02 16.53Q113.02 13.56 114.16 11.35Q115.29 9.13 117.40 7.89Q119.50 6.65 122.37 6.65L122.37 6.65Q125.26 6.65 127.35 7.89Q129.44 9.13 130.58 11.35Q131.72 13.56 131.72 16.53L131.72 16.53Q131.72 19.47 130.58 21.68Q129.44 23.90 127.35 25.14Q125.26 26.38 122.37 26.38ZM122.37 22.34L122.37 22.34Q123.74 22.34 124.66 21.58Q125.58 20.82 126.04 19.50Q126.51 18.17 126.51 16.52L126.51 16.52Q126.51 14.82 126.04 13.51Q125.58 12.19 124.66 11.44Q123.74 10.69 122.37 10.69L122.37 10.69Q121.00 10.69 120.09 11.44Q119.17 12.19 118.71 13.51Q118.25 14.82 118.25 16.52L118.25 16.52Q118.25 18.17 118.71 19.50Q119.17 20.82 120.09 21.58Q121.00 22.34 122.37 22.34ZM143.71 26.32L143.71 26.32Q142.16 26.32 141.08 25.79Q140.00 25.27 139.33 24.49Q138.65 23.71 138.30 22.94L138.30 22.94L138.06 22.94L138.06 26L133.01 26L133.01 0.54L138.14 0.54L138.14 10.11L138.30 10.11Q138.65 9.35 139.31 8.55Q139.97 7.75 141.05 7.20Q142.12 6.65 143.75 6.65L143.75 6.65Q145.87 6.65 147.63 7.75Q149.39 8.84 150.44 11.03Q151.49 13.22 151.49 16.48L151.49 16.48Q151.49 19.66 150.46 21.86Q149.44 24.05 147.68 25.19Q145.92 26.32 143.71 26.32ZM142.14 22.21L142.14 22.21Q143.47 22.21 144.39 21.47Q145.30 20.74 145.77 19.44Q146.24 18.14 146.24 16.46L146.24 16.46Q146.24 14.79 145.77 13.51Q145.30 12.23 144.40 11.49Q143.49 10.76 142.14 10.76L142.14 10.76Q140.82 10.76 139.90 11.47Q138.98 12.17 138.50 13.45Q138.02 14.72 138.02 16.46L138.02 16.46Q138.02 18.19 138.51 19.48Q139.00 20.77 139.92 21.49Q140.84 22.21 142.14 22.21ZM160.39 26.38L160.39 26.38Q158.08 26.38 156.31 25.72Q154.53 25.06 153.40 23.80Q152.27 22.55 151.95 20.77L151.95 20.77L156.72 19.95Q157.09 21.28 158.03 21.95Q158.97 22.62 160.54 22.62L160.54 22.62Q162.00 22.62 162.85 22.06Q163.71 21.51 163.71 20.65L163.71 20.65Q163.71 19.90 163.10 19.42Q162.49 18.94 161.24 18.69L161.24 18.69L157.95 18.00Q155.18 17.44 153.81 16.08Q152.44 14.72 152.44 12.58L152.44 12.58Q152.44 10.74 153.45 9.41Q154.46 8.09 156.25 7.37Q158.05 6.65 160.48 6.65L160.48 6.65Q162.73 6.65 164.39 7.28Q166.05 7.90 167.07 9.05Q168.10 10.19 168.44 11.75L168.44 11.75L163.89 12.55Q163.60 11.58 162.77 10.95Q161.95 10.33 160.54 10.33L160.54 10.33Q159.28 10.33 158.42 10.86Q157.57 11.39 157.57 12.26L157.57 12.26Q157.57 12.99 158.13 13.49Q158.68 13.99 160.03 14.26L160.03 14.26L163.47 14.94Q166.24 15.51 167.59 16.78Q168.94 18.05 168.94 20.10L168.94 20.10Q168.94 21.98 167.84 23.39Q166.75 24.80 164.83 25.59Q162.90 26.38 160.39 26.38Z"/></g>
        
      </svg>
    